# xmcd
#
# Track frame offsets:
#	150
#	17735
#	41015
#	58961
#	94796
#	124740
#	142801
#	167878
#	190349
#	212220
#
# Disc length: 3095 seconds
#
# Revision: 1
# Processed by: cddbd v1.5.2PL0 Copyright (c) Steve Scherf et al.
# Submitted via: audiograbber 1.83.01
#
DISCID=900c150a
DTITLE=Various Artist - Paradise Selection
DYEAR=1995
DGENRE=Dance
TTITLE0=Annette Taylor - Put The Fire Out
TTITLE1=Vicky Shepard - Love Has Changed My Mind
TTITLE2=Todd Terry - A Day In The Life
TTITLE3=David Morales - Philadelphia
TTITLE4=Belcanto - We've Got to Work It Out
TTITLE5=KC Flightt - Bang!
TTITLE6=J.K. - My Radio
TTITLE7=Pink Noise - Enter
TTITLE8=DayDream - Through The Night
TTITLE9=Liberty - Melody In Motion
EXTD=
EXTT0=
EXTT1=
EXTT2=
EXTT3=
EXTT4=
EXTT5=
EXTT6=
EXTT7=
EXTT8=
EXTT9=
PLAYORDER=
